# xmcd CD database file
#
# Track frame offsets:
#	150
#	18492
#	38626
#	59391
#	84466
#	113418
#	137665
#	167852
#	180668
#	209801
#	223144
#	237118
#	260845
#	272296
#	284400
#	311148
#	319494
#	332049
#
# Disc length: 4716 seconds
#
# Revision: 0
# Processed by: cddbd v1.5.2PL0 Copyright (c) Steve Scherf et al.
# Submitted via: CDex 1.51
#
DISCID=13126a12
DTITLE=Piano Jazz - Piano Jazz
DYEAR=2008
DGENRE=Jazz
TTITLE0=Nina Simone - Love me or leave me
TTITLE1=Diana Krall - This can't be love
TTITLE2=Ahmad Jamal - Fantastic vehicule
TTITLE3=Perico Sambeat and Brad Mehldau - Mirall
TTITLE4=Chick Corea - Matrix
TTITLE5=Randy Weston - Ruby ma dear
TTITLE6=Jacky Terrasson - Time after time
TTITLE7=Michel Legrand - I love Paris (Instrumental)
TTITLE8=Bud Powell Trio - There will never be another you
TTITLE9=Erroll Garner - Frantanality
TTITLE10=Fats Waller - Smashing thirds
TTITLE11=George Gershwin - Tip Toes medley
TTITLE12=Oscar Peterson - Smiles
TTITLE13=Duke Ellington - Caravan
TTITLE14=Dave Brubeck - For all we know
TTITLE15=Raphael Gualazzi - Georgia on my mind
TTITLE16=Nat King Cole - I like to riff
TTITLE17=Ray Charles - Route 66 (Live)
EXTD=YEAR: 2008
EXTT0=
EXTT1=
EXTT2=
EXTT3=
EXTT4=
EXTT5=
EXTT6=
EXTT7=
EXTT8=
EXTT9=
EXTT10=
EXTT11=
EXTT12=
EXTT13=
EXTT14=
EXTT15=
EXTT16=
EXTT17=
PLAYORDER=
